<?xml version="1.0" encoding="UTF-8"?>
<svg width="2155px" height="1767px" viewBox="0 0 2155 1767" version="1.1" xmlns="http://www.w3.org/2000/svg" xmlns:xlink="http://www.w3.org/1999/xlink" style="background: #FFFFFF;">
    <!-- Generator: Sketch 63.1 (92452) - https://sketch.com -->
    <title>Drawings</title>
    <desc>Created with Sketch.</desc>
    <g id="Page-1" stroke="none" stroke-width="1" fill="none" fill-rule="evenodd">
        <g id="NOT" transform="translate(549.000000, 381.000000)" stroke="#000000">
            <path d="M30,6.55952621 C29.3096441,6.55952621 28.6846441,6.83934824 28.232233,7.29175925 C27.779822,7.74417027 27.5,8.36917027 27.5,9.05952621 L27.5,116.016974 C27.5,116.482461 27.6299595,116.938704 27.8752433,117.334323 C28.2390192,117.921058 28.806178,118.304798 29.4290766,118.45091 C30.0519753,118.597022 30.7306138,118.505506 31.3173492,118.14173 L116.883307,65.0908364 C117.205964,64.8907888 117.478824,64.6198843 117.681187,64.2986738 C118.049172,63.7145695 118.145566,63.0366066 118.003937,62.4126734 C117.862308,61.7887402 117.482656,61.2188366 116.898552,60.8508509 L31.3325941,6.94429741 C30.9335788,6.69291778 30.4715983,6.55952621 30,6.55952621 Z" id="Rectangle" stroke-width="5"></path>
            <ellipse id="Oval" stroke-width="5" cx="130" cy="62.5" rx="11.5" ry="12"></ellipse>
            <line x1="169" y1="63" x2="144" y2="63" id="Line-2" stroke-width="4" stroke-linecap="round"></line>
            <line x1="25" y1="63" x2="2.87964097e-14" y2="63" id="Line-2" stroke-width="4" stroke-linecap="round"></line>
        </g>
        <g id="AND" transform="translate(789.000000, 1144.500000) rotate(90.000000) translate(-789.000000, -1144.500000) translate(718.000000, 1074.000000)" stroke="#000000" stroke-width="5">
            <path d="M30.5,3.01671209 C29.8096434,3.01671209 29.1846428,3.29653429 28.7322316,3.74894579 C28.2798209,4.20135674 27.9999993,4.82635659 28,5.51671236 L28.0240751,135.890189 C28.1137321,136.534331 28.4439757,137.090611 28.9141182,137.476406 C29.4087154,137.882268 30.058144,138.099448 30.7451717,138.031744 C58.6940514,135.277566 79.7071371,128.320629 93.6935571,116.97542 C107.398806,105.858285 114.19451,90.5139263 114.19451,71 C114.19451,51.4824193 107.396401,36.0614246 93.6940581,24.790116 C79.7138246,13.2902197 58.7100497,6.09741965 30.5,3.01671209 Z" id="Rectangle"></path>
            <line x1="26" y1="69" x2="1" y2="69" id="Line-4" stroke-linecap="round"></line>
            <line x1="141.5" y1="69" x2="116.5" y2="69" id="Line-4" stroke-linecap="round"></line>
        </g>
        <g id="AND" transform="translate(980.000000, 1144.500000) rotate(90.000000) translate(-980.000000, -1144.500000) translate(909.000000, 1074.000000)" stroke="#000000" stroke-width="5">
            <path d="M30.5,3.01671209 C29.8096434,3.01671209 29.1846428,3.29653429 28.7322316,3.74894579 C28.2798209,4.20135674 27.9999993,4.82635659 28,5.51671236 L28.0240751,135.890189 C28.1137321,136.534331 28.4439757,137.090611 28.9141182,137.476406 C29.4087154,137.882268 30.058144,138.099448 30.7451717,138.031744 C58.6940514,135.277566 79.7071371,128.320629 93.6935571,116.97542 C107.398806,105.858285 114.19451,90.5139263 114.19451,71 C114.19451,51.4824193 107.396401,36.0614246 93.6940581,24.790116 C79.7138246,13.2902197 58.7100497,6.09741965 30.5,3.01671209 Z" id="Rectangle"></path>
            <line x1="26" y1="69" x2="1" y2="69" id="Line-4" stroke-linecap="round"></line>
            <line x1="141.5" y1="69" x2="116.5" y2="69" id="Line-4" stroke-linecap="round"></line>
        </g>
        <g id="AND" transform="translate(1171.000000, 1144.500000) rotate(90.000000) translate(-1171.000000, -1144.500000) translate(1100.000000, 1074.000000)" stroke="#000000" stroke-width="5">
            <path d="M30.5,3.01671209 C29.8096434,3.01671209 29.1846428,3.29653429 28.7322316,3.74894579 C28.2798209,4.20135674 27.9999993,4.82635659 28,5.51671236 L28.0240751,135.890189 C28.1137321,136.534331 28.4439757,137.090611 28.9141182,137.476406 C29.4087154,137.882268 30.058144,138.099448 30.7451717,138.031744 C58.6940514,135.277566 79.7071371,128.320629 93.6935571,116.97542 C107.398806,105.858285 114.19451,90.5139263 114.19451,71 C114.19451,51.4824193 107.396401,36.0614246 93.6940581,24.790116 C79.7138246,13.2902197 58.7100497,6.09741965 30.5,3.01671209 Z" id="Rectangle"></path>
            <line x1="26" y1="69" x2="1" y2="69" id="Line-4" stroke-linecap="round"></line>
            <line x1="141.5" y1="69" x2="116.5" y2="69" id="Line-4" stroke-linecap="round"></line>
        </g>
        <g id="AND" transform="translate(1362.000000, 1144.500000) rotate(90.000000) translate(-1362.000000, -1144.500000) translate(1291.000000, 1074.000000)" stroke="#000000" stroke-width="5">
            <path d="M30.5,3.01671209 C29.8096434,3.01671209 29.1846428,3.29653429 28.7322316,3.74894579 C28.2798209,4.20135674 27.9999993,4.82635659 28,5.51671236 L28.0240751,135.890189 C28.1137321,136.534331 28.4439757,137.090611 28.9141182,137.476406 C29.4087154,137.882268 30.058144,138.099448 30.7451717,138.031744 C58.6940514,135.277566 79.7071371,128.320629 93.6935571,116.97542 C107.398806,105.858285 114.19451,90.5139263 114.19451,71 C114.19451,51.4824193 107.396401,36.0614246 93.6940581,24.790116 C79.7138246,13.2902197 58.7100497,6.09741965 30.5,3.01671209 Z" id="Rectangle"></path>
            <line x1="26" y1="69" x2="1" y2="69" id="Line-4" stroke-linecap="round"></line>
            <line x1="141.5" y1="69" x2="116.5" y2="69" id="Line-4" stroke-linecap="round"></line>
        </g>
        <g id="OR" transform="translate(1484.000000, 1216.000000)" stroke="#000000" stroke-width="5">
            <path d="M15.7212916,4.29717544 C15.155844,4.18796949 14.5700323,4.27733129 14.0628614,4.55015826 C13.4548892,4.87721022 13.0370376,5.41972966 12.852942,6.03247917 C12.6688465,6.64522868 12.718507,7.32820827 13.045559,7.93618055 L13.5339484,8.85199394 C23.8190822,28.3097986 28.9569979,48.8568592 28.9569979,70.5 C28.9569979,92.5367729 23.6306919,113.437336 12.9721079,133.200196 C12.7031982,133.698802 12.6116034,134.273954 12.71233,134.831425 C12.8350788,135.510778 13.2215692,136.076063 13.7472107,136.440823 C14.2728521,136.805582 14.9376446,136.969816 15.6169977,136.847067 L17.2172787,136.55257 C43.0678416,131.708118 62.4901233,123.800982 75.3981992,112.691931 C87.9939227,101.8517 94.2525333,87.9540012 94.1949377,71.0084971 C94.1365188,53.8936087 87.6917853,39.8170154 74.8493562,28.7840382 C61.6929524,17.4813242 41.9584145,9.36440035 15.7212916,4.29717544 Z" id="Rectangle"></path>
            <line x1="26" y1="71" x2="1" y2="71" id="Line-4" stroke-linecap="round"></line>
            <line x1="121.5" y1="69" x2="96.5" y2="69" id="Line-4" stroke-linecap="round"></line>
        </g>
        <g id="OR" transform="translate(1484.000000, 1397.000000)" stroke="#000000" stroke-width="5">
            <path d="M15.7212916,4.29717544 C15.155844,4.18796949 14.5700323,4.27733129 14.0628614,4.55015826 C13.4548892,4.87721022 13.0370376,5.41972966 12.852942,6.03247917 C12.6688465,6.64522868 12.718507,7.32820827 13.045559,7.93618055 L13.5339484,8.85199394 C23.8190822,28.3097986 28.9569979,48.8568592 28.9569979,70.5 C28.9569979,92.5367729 23.6306919,113.437336 12.9721079,133.200196 C12.7031982,133.698802 12.6116034,134.273954 12.71233,134.831425 C12.8350788,135.510778 13.2215692,136.076063 13.7472107,136.440823 C14.2728521,136.805582 14.9376446,136.969816 15.6169977,136.847067 L17.2172787,136.55257 C43.0678416,131.708118 62.4901233,123.800982 75.3981992,112.691931 C87.9939227,101.8517 94.2525333,87.9540012 94.1949377,71.0084971 C94.1365188,53.8936087 87.6917853,39.8170154 74.8493562,28.7840382 C61.6929524,17.4813242 41.9584145,9.36440035 15.7212916,4.29717544 Z" id="Rectangle"></path>
            <line x1="26" y1="71" x2="1" y2="71" id="Line-4" stroke-linecap="round"></line>
            <line x1="121.5" y1="69" x2="96.5" y2="69" id="Line-4" stroke-linecap="round"></line>
        </g>
        <g id="OR" transform="translate(1484.000000, 1578.000000)" stroke="#000000" stroke-width="5">
            <path d="M15.7212916,4.29717544 C15.155844,4.18796949 14.5700323,4.27733129 14.0628614,4.55015826 C13.4548892,4.87721022 13.0370376,5.41972966 12.852942,6.03247917 C12.6688465,6.64522868 12.718507,7.32820827 13.045559,7.93618055 L13.5339484,8.85199394 C23.8190822,28.3097986 28.9569979,48.8568592 28.9569979,70.5 C28.9569979,92.5367729 23.6306919,113.437336 12.9721079,133.200196 C12.7031982,133.698802 12.6116034,134.273954 12.71233,134.831425 C12.8350788,135.510778 13.2215692,136.076063 13.7472107,136.440823 C14.2728521,136.805582 14.9376446,136.969816 15.6169977,136.847067 L17.2172787,136.55257 C43.0678416,131.708118 62.4901233,123.800982 75.3981992,112.691931 C87.9939227,101.8517 94.2525333,87.9540012 94.1949377,71.0084971 C94.1365188,53.8936087 87.6917853,39.8170154 74.8493562,28.7840382 C61.6929524,17.4813242 41.9584145,9.36440035 15.7212916,4.29717544 Z" id="Rectangle"></path>
            <line x1="26" y1="71" x2="1" y2="71" id="Line-4" stroke-linecap="round"></line>
            <line x1="121.5" y1="69" x2="96.5" y2="69" id="Line-4" stroke-linecap="round"></line>
        </g>
        <line x1="392.177231" y1="355.970314" x2="1492.17723" y2="355.970314" id="Path" stroke="#000000" stroke-width="5" stroke-linecap="round"></line>
        <path d="M574,444 L498.674385,443.558295 C493.174518,443.526045 488.733024,439.058429 488.733024,433.558467 L488.733024,355.970314 L488.733024,355.970314" id="Path-2" stroke="#000000" stroke-width="5" stroke-linecap="round"></path>
        <circle id="Oval" fill="#000000" cx="489" cy="356" r="10"></circle>
        <text id="I1" font-family="Helvetica" font-size="65" font-weight="normal" fill="#000000">
            <tspan x="319" y="380">I1</tspan>
        </text>
        <text id="O1" font-family="Helvetica" font-size="65" font-weight="normal" fill="#000000">
            <tspan x="1708" y="1309">O1</tspan>
        </text>
        <text id="O2" font-family="Helvetica" font-size="65" font-weight="normal" fill="#000000">
            <tspan x="1708" y="1490">O2</tspan>
        </text>
        <text id="O3" font-family="Helvetica" font-size="65" font-weight="normal" fill="#000000">
            <tspan x="1708" y="1671">O3</tspan>
        </text>
        <line x1="691.177231" y1="444" x2="1492.17723" y2="444" id="Path-3" stroke="#000000" stroke-width="5" stroke-linecap="round"></line>
        <g id="NOT" transform="translate(549.000000, 570.000000)" stroke="#000000">
            <path d="M30,6.55952621 C29.3096441,6.55952621 28.6846441,6.83934824 28.232233,7.29175925 C27.779822,7.74417027 27.5,8.36917027 27.5,9.05952621 L27.5,116.016974 C27.5,116.482461 27.6299595,116.938704 27.8752433,117.334323 C28.2390192,117.921058 28.806178,118.304798 29.4290766,118.45091 C30.0519753,118.597022 30.7306138,118.505506 31.3173492,118.14173 L116.883307,65.0908364 C117.205964,64.8907888 117.478824,64.6198843 117.681187,64.2986738 C118.049172,63.7145695 118.145566,63.0366066 118.003937,62.4126734 C117.862308,61.7887402 117.482656,61.2188366 116.898552,60.8508509 L31.3325941,6.94429741 C30.9335788,6.69291778 30.4715983,6.55952621 30,6.55952621 Z" id="Rectangle" stroke-width="5"></path>
            <ellipse id="Oval" stroke-width="5" cx="130" cy="62.5" rx="11.5" ry="12"></ellipse>
            <line x1="169" y1="63" x2="144" y2="63" id="Line-2" stroke-width="4" stroke-linecap="round"></line>
            <line x1="25" y1="63" x2="2.87964097e-14" y2="63" id="Line-2" stroke-width="4" stroke-linecap="round"></line>
        </g>
        <line x1="392.177231" y1="544.970314" x2="1492.17723" y2="544.970314" id="Path" stroke="#000000" stroke-width="5" stroke-linecap="round"></line>
        <path d="M574,633 L498.674385,632.558295 C493.174518,632.526045 488.733024,628.058429 488.733024,622.558467 L488.733024,544.970314 L488.733024,544.970314" id="Path-2" stroke="#000000" stroke-width="5" stroke-linecap="round"></path>
        <circle id="Oval" fill="#000000" cx="489" cy="545" r="10"></circle>
        <text id="I2" font-family="Helvetica" font-size="65" font-weight="normal" fill="#000000">
            <tspan x="319" y="569">I2</tspan>
        </text>
        <line x1="691.177231" y1="633" x2="1492.17723" y2="633" id="Path-3" stroke="#000000" stroke-width="5" stroke-linecap="round"></line>
        <g id="NOT" transform="translate(549.000000, 759.000000)" stroke="#000000">
            <path d="M30,6.55952621 C29.3096441,6.55952621 28.6846441,6.83934824 28.232233,7.29175925 C27.779822,7.74417027 27.5,8.36917027 27.5,9.05952621 L27.5,116.016974 C27.5,116.482461 27.6299595,116.938704 27.8752433,117.334323 C28.2390192,117.921058 28.806178,118.304798 29.4290766,118.45091 C30.0519753,118.597022 30.7306138,118.505506 31.3173492,118.14173 L116.883307,65.0908364 C117.205964,64.8907888 117.478824,64.6198843 117.681187,64.2986738 C118.049172,63.7145695 118.145566,63.0366066 118.003937,62.4126734 C117.862308,61.7887402 117.482656,61.2188366 116.898552,60.8508509 L31.3325941,6.94429741 C30.9335788,6.69291778 30.4715983,6.55952621 30,6.55952621 Z" id="Rectangle" stroke-width="5"></path>
            <ellipse id="Oval" stroke-width="5" cx="130" cy="62.5" rx="11.5" ry="12"></ellipse>
            <line x1="169" y1="63" x2="144" y2="63" id="Line-2" stroke-width="4" stroke-linecap="round"></line>
            <line x1="25" y1="63" x2="2.87964097e-14" y2="63" id="Line-2" stroke-width="4" stroke-linecap="round"></line>
        </g>
        <line x1="392.177231" y1="733.970314" x2="1492.17723" y2="733.970314" id="Path" stroke="#000000" stroke-width="5" stroke-linecap="round"></line>
        <path d="M574,822 L498.674385,821.558295 C493.174518,821.526045 488.733024,817.058429 488.733024,811.558467 L488.733024,733.970314 L488.733024,733.970314" id="Path-2" stroke="#000000" stroke-width="5" stroke-linecap="round"></path>
        <circle id="Oval" fill="#000000" cx="489" cy="734" r="10"></circle>
        <text id="I3" font-family="Helvetica" font-size="65" font-weight="normal" fill="#000000">
            <tspan x="319" y="758">I3</tspan>
        </text>
        <line x1="691.177231" y1="822" x2="1492.17723" y2="822" id="Path-3" stroke="#000000" stroke-width="5" stroke-linecap="round"></line>
        <g id="NOT" transform="translate(549.000000, 948.000000)" stroke="#000000">
            <path d="M30,6.55952621 C29.3096441,6.55952621 28.6846441,6.83934824 28.232233,7.29175925 C27.779822,7.74417027 27.5,8.36917027 27.5,9.05952621 L27.5,116.016974 C27.5,116.482461 27.6299595,116.938704 27.8752433,117.334323 C28.2390192,117.921058 28.806178,118.304798 29.4290766,118.45091 C30.0519753,118.597022 30.7306138,118.505506 31.3173492,118.14173 L116.883307,65.0908364 C117.205964,64.8907888 117.478824,64.6198843 117.681187,64.2986738 C118.049172,63.7145695 118.145566,63.0366066 118.003937,62.4126734 C117.862308,61.7887402 117.482656,61.2188366 116.898552,60.8508509 L31.3325941,6.94429741 C30.9335788,6.69291778 30.4715983,6.55952621 30,6.55952621 Z" id="Rectangle" stroke-width="5"></path>
            <ellipse id="Oval" stroke-width="5" cx="130" cy="62.5" rx="11.5" ry="12"></ellipse>
            <line x1="169" y1="63" x2="144" y2="63" id="Line-2" stroke-width="4" stroke-linecap="round"></line>
            <line x1="25" y1="63" x2="2.87964097e-14" y2="63" id="Line-2" stroke-width="4" stroke-linecap="round"></line>
        </g>
        <line x1="392.177231" y1="922.970314" x2="1492.17723" y2="922.970314" id="Path" stroke="#000000" stroke-width="5" stroke-linecap="round"></line>
        <path d="M574,1011 L498.674385,1010.5583 C493.174518,1010.52604 488.733024,1006.05843 488.733024,1000.55847 L488.733024,922.970314 L488.733024,922.970314" id="Path-2" stroke="#000000" stroke-width="5" stroke-linecap="round"></path>
        <circle id="Oval" fill="#000000" cx="489" cy="923" r="10"></circle>
        <text id="I4" font-family="Helvetica" font-size="65" font-weight="normal" fill="#000000">
            <tspan x="319" y="947">I4</tspan>
        </text>
        <line x1="691.177231" y1="1011" x2="1492.17723" y2="1011" id="Path-3" stroke="#000000" stroke-width="5" stroke-linecap="round"></line>
        <line x1="790.5" y1="1099" x2="790.5" y2="246.3498" id="Path-4" stroke="#000000" stroke-width="5" stroke-linecap="round"></line>
        <line x1="981.5" y1="1099" x2="981.5" y2="246.3498" id="Path-5" stroke="#000000" stroke-width="5" stroke-linecap="round"></line>
        <line x1="1172.03874" y1="1099.5" x2="1172.5" y2="246.3498" id="Path-6" stroke="#000000" stroke-width="5" stroke-linecap="round"></line>
        <line x1="1363.5" y1="1099.5" x2="1362" y2="246.3498" id="Path-7" stroke="#000000" stroke-width="5" stroke-linecap="round"></line>
        <path d="M311.492026,976.172162 L280,976.172162 C268.954305,976.172162 260,967.217857 260,956.172162 L260,329 C260,317.954305 268.954305,309 280,309 L311.492026,309 L311.492026,309" id="Path-8" stroke="#2B80B9" stroke-width="10" stroke-linecap="round"></path>
        <path d="M1869.49203,1719 L1838,1719 C1826.95431,1719 1818,1710.04569 1818,1699 L1818,1252 C1818,1240.95431 1826.95431,1232 1838,1232 L1869.49203,1232 L1869.49203,1232" id="Path-8" stroke="#C0392C" stroke-width="10" stroke-linecap="round" transform="translate(1843.746013, 1475.500000) scale(-1, 1) translate(-1843.746013, -1475.500000) "></path>
        <path d="M1095.49203,554.172162 L1064,554.172162 C1052.95431,554.172162 1044,545.217857 1044,534.172162 L1044,-93 C1044,-104.045695 1052.95431,-113 1064,-113 L1095.49203,-113 L1095.49203,-113" id="Path-8" stroke="#913FAB" stroke-width="10" stroke-linecap="round" transform="translate(1069.746013, 220.586081) rotate(90.000000) translate(-1069.746013, -220.586081) "></path>
        <text id="N=4-Inputs" font-family="Helvetica-Bold, Helvetica" font-size="65" font-weight="bold" fill="#2B96DF">
            <tspan x="95.9501953" y="628">N=4</tspan>
            <tspan x="22.0317383" y="706">Inputs</tspan>
        </text>
        <text id="M=3-Outputs" font-family="Helvetica-Bold, Helvetica" font-size="65" font-weight="bold" fill="#E64C3C">
            <tspan x="1905" y="1452">M=3 </tspan>
            <tspan x="1905" y="1530">Outputs</tspan>
        </text>
        <text id="P=4-Intermediate-Sta" font-family="Helvetica-Bold, Helvetica" font-size="65" font-weight="bold" fill="#9C57B7">
            <tspan x="1011.26831" y="63">P=4 </tspan>
            <tspan x="761.138916" y="141">Intermediate Stages</tspan>
        </text>
        <line x1="790.5" y1="1190.19451" x2="789" y2="1763.99336" id="Path-9" stroke="#000000" stroke-width="5" stroke-linecap="round"></line>
        <line x1="981.5" y1="1190.19451" x2="981.5" y2="1763.99336" id="Path-10" stroke="#000000" stroke-width="5" stroke-linecap="round"></line>
        <line x1="1172.5" y1="1190.19451" x2="1171" y2="1763.99336" id="Path-11" stroke="#000000" stroke-width="5" stroke-linecap="round"></line>
        <line x1="1363.5" y1="1190.19451" x2="1363.5" y2="1763.99336" id="Path-12" stroke="#000000" stroke-width="5" stroke-linecap="round"></line>
        <line x1="1510" y1="1287" x2="693" y2="1287" id="Path-13" stroke="#000000" stroke-width="5" stroke-linecap="round"></line>
        <line x1="1510" y1="1468" x2="693" y2="1466" id="Path-14" stroke="#000000" stroke-width="5" stroke-linecap="round"></line>
        <line x1="1510" y1="1649" x2="693" y2="1647" id="Path-15" stroke="#000000" stroke-width="5" stroke-linecap="round"></line>
        <line x1="1580.69492" y1="1285" x2="1697.37494" y2="1285" id="Path-16" stroke="#000000" stroke-width="5" stroke-linecap="round"></line>
        <line x1="1580.5" y1="1466" x2="1697.37494" y2="1466" id="Path-17" stroke="#000000" stroke-width="5" stroke-linecap="round"></line>
        <line x1="1580.69492" y1="1648" x2="1697.37494" y2="1647" id="Path-18" stroke="#000000" stroke-width="5" stroke-linecap="round"></line>
        <text id="0" font-family="Helvetica-Bold, Helvetica" font-size="50" font-weight="bold" fill="#000000">
            <tspan x="755.096191" y="341">0</tspan>
        </text>
        <text id="1" font-family="Helvetica-Bold, Helvetica" font-size="50" font-weight="bold" fill="#000000">
            <tspan x="946.096191" y="341">1</tspan>
        </text>
        <text id="2" font-family="Helvetica-Bold, Helvetica" font-size="50" font-weight="bold" fill="#000000">
            <tspan x="1137.09619" y="341">2</tspan>
        </text>
        <text id="3" font-family="Helvetica-Bold, Helvetica" font-size="50" font-weight="bold" fill="#000000">
            <tspan x="1327.09619" y="341">3</tspan>
        </text>
        <text id="1" font-family="Helvetica-Bold, Helvetica" font-size="50" font-weight="bold" fill="#000000">
            <tspan x="946.096191" y="341">1</tspan>
        </text>
        <text id="4" font-family="Helvetica-Bold, Helvetica" font-size="50" font-weight="bold" fill="#000000">
            <tspan x="755.096191" y="433">4</tspan>
        </text>
        <text id="6" font-family="Helvetica-Bold, Helvetica" font-size="50" font-weight="bold" fill="#000000">
            <tspan x="1137.59619" y="433">6</tspan>
        </text>
        <text id="7" font-family="Helvetica-Bold, Helvetica" font-size="50" font-weight="bold" fill="#000000">
            <tspan x="1327.59619" y="433">7</tspan>
        </text>
        <text id="5" font-family="Helvetica-Bold, Helvetica" font-size="50" font-weight="bold" fill="#000000">
            <tspan x="946.596191" y="433">5</tspan>
        </text>
        <text id="8" font-family="Helvetica-Bold, Helvetica" font-size="50" font-weight="bold" fill="#000000">
            <tspan x="755.096191" y="534">8</tspan>
        </text>
        <text id="10" font-family="Helvetica-Bold, Helvetica" font-size="50" font-weight="bold" fill="#000000">
            <tspan x="1109.19238" y="534">10</tspan>
        </text>
        <text id="11" font-family="Helvetica-Bold, Helvetica" font-size="50" font-weight="bold" fill="#000000">
            <tspan x="1303" y="534">11</tspan>
        </text>
        <text id="9" font-family="Helvetica-Bold, Helvetica" font-size="50" font-weight="bold" fill="#000000">
            <tspan x="945.596191" y="534">9</tspan>
        </text>
        <text id="12" font-family="Helvetica-Bold, Helvetica" font-size="50" font-weight="bold" fill="#000000">
            <tspan x="727.192383" y="622">12</tspan>
        </text>
        <text id="14" font-family="Helvetica-Bold, Helvetica" font-size="50" font-weight="bold" fill="#000000">
            <tspan x="1109.19238" y="622">14</tspan>
        </text>
        <text id="15" font-family="Helvetica-Bold, Helvetica" font-size="50" font-weight="bold" fill="#000000">
            <tspan x="1300.19238" y="622">15</tspan>
        </text>
        <text id="13" font-family="Helvetica-Bold, Helvetica" font-size="50" font-weight="bold" fill="#000000">
            <tspan x="917.192383" y="622">13</tspan>
        </text>
        <text id="16" font-family="Helvetica-Bold, Helvetica" font-size="50" font-weight="bold" fill="#000000">
            <tspan x="727.192383" y="721">16</tspan>
        </text>
        <text id="18" font-family="Helvetica-Bold, Helvetica" font-size="50" font-weight="bold" fill="#000000">
            <tspan x="1109.19238" y="721">18</tspan>
        </text>
        <text id="19" font-family="Helvetica-Bold, Helvetica" font-size="50" font-weight="bold" fill="#000000">
            <tspan x="1300.19238" y="721">19</tspan>
        </text>
        <text id="17" font-family="Helvetica-Bold, Helvetica" font-size="50" font-weight="bold" fill="#000000">
            <tspan x="917.192383" y="721">17</tspan>
        </text>
        <text id="20" font-family="Helvetica-Bold, Helvetica" font-size="50" font-weight="bold" fill="#000000">
            <tspan x="727.192383" y="809">20</tspan>
        </text>
        <text id="22" font-family="Helvetica-Bold, Helvetica" font-size="50" font-weight="bold" fill="#000000">
            <tspan x="1107.19238" y="809">22</tspan>
        </text>
        <text id="23" font-family="Helvetica-Bold, Helvetica" font-size="50" font-weight="bold" fill="#000000">
            <tspan x="1300.19238" y="809">23</tspan>
        </text>
        <text id="21" font-family="Helvetica-Bold, Helvetica" font-size="50" font-weight="bold" fill="#000000">
            <tspan x="917.192383" y="809">21</tspan>
        </text>
        <text id="24" font-family="Helvetica-Bold, Helvetica" font-size="50" font-weight="bold" fill="#000000">
            <tspan x="727.192383" y="911">24</tspan>
        </text>
        <text id="26" font-family="Helvetica-Bold, Helvetica" font-size="50" font-weight="bold" fill="#000000">
            <tspan x="1107.19238" y="911">26</tspan>
        </text>
        <text id="27" font-family="Helvetica-Bold, Helvetica" font-size="50" font-weight="bold" fill="#000000">
            <tspan x="1300.19238" y="911">27</tspan>
        </text>
        <text id="25" font-family="Helvetica-Bold, Helvetica" font-size="50" font-weight="bold" fill="#000000">
            <tspan x="917.192383" y="911">25</tspan>
        </text>
        <text id="28" font-family="Helvetica-Bold, Helvetica" font-size="50" font-weight="bold" fill="#000000">
            <tspan x="727.192383" y="1000">28</tspan>
        </text>
        <text id="30" font-family="Helvetica-Bold, Helvetica" font-size="50" font-weight="bold" fill="#000000">
            <tspan x="1107.19238" y="1000">30</tspan>
        </text>
        <text id="31" font-family="Helvetica-Bold, Helvetica" font-size="50" font-weight="bold" fill="#000000">
            <tspan x="1300.19238" y="1000">31</tspan>
        </text>
        <text id="29" font-family="Helvetica-Bold, Helvetica" font-size="50" font-weight="bold" fill="#000000">
            <tspan x="917.192383" y="1000">29</tspan>
        </text>
        <text id="32" font-family="Helvetica-Bold, Helvetica" font-size="50" font-weight="bold" fill="#000000">
            <tspan x="727.192383" y="1276">32</tspan>
        </text>
        <text id="34" font-family="Helvetica-Bold, Helvetica" font-size="50" font-weight="bold" fill="#000000">
            <tspan x="1107.19238" y="1276">34</tspan>
        </text>
        <text id="35" font-family="Helvetica-Bold, Helvetica" font-size="50" font-weight="bold" fill="#000000">
            <tspan x="1300.19238" y="1276">35</tspan>
        </text>
        <text id="33" font-family="Helvetica-Bold, Helvetica" font-size="50" font-weight="bold" fill="#000000">
            <tspan x="917.192383" y="1276">33</tspan>
        </text>
        <text id="36" font-family="Helvetica-Bold, Helvetica" font-size="50" font-weight="bold" fill="#000000">
            <tspan x="725.192383" y="1453">36</tspan>
        </text>
        <text id="38" font-family="Helvetica-Bold, Helvetica" font-size="50" font-weight="bold" fill="#000000">
            <tspan x="1107.19238" y="1453">38</tspan>
        </text>
        <text id="39" font-family="Helvetica-Bold, Helvetica" font-size="50" font-weight="bold" fill="#000000">
            <tspan x="1300.19238" y="1453">39</tspan>
        </text>
        <text id="37" font-family="Helvetica-Bold, Helvetica" font-size="50" font-weight="bold" fill="#000000">
            <tspan x="917.192383" y="1453">37</tspan>
        </text>
        <text id="40" font-family="Helvetica-Bold, Helvetica" font-size="50" font-weight="bold" fill="#000000">
            <tspan x="725.192383" y="1634">40</tspan>
        </text>
        <text id="42" font-family="Helvetica-Bold, Helvetica" font-size="50" font-weight="bold" fill="#000000">
            <tspan x="1107.19238" y="1634">42</tspan>
        </text>
        <text id="43" font-family="Helvetica-Bold, Helvetica" font-size="50" font-weight="bold" fill="#000000">
            <tspan x="1300.19238" y="1634">43</tspan>
        </text>
        <text id="41" font-family="Helvetica-Bold, Helvetica" font-size="50" font-weight="bold" fill="#000000">
            <tspan x="917.192383" y="1634">41</tspan>
        </text>
    </g>
</svg>